<svg width="1200" height="675" viewBox="0 0 1200 675" xmlns="http://www.w3.org/2000/svg">
  <!-- Background -->
  <rect width="1200" height="675" fill="#1e88e5"/>
  
  <!-- Decorative elements -->
  <rect x="0" y="0" width="1200" height="675" fill="url(#grid)" opacity="0.1"/>
  
  <!-- Paisa Bazaar Logo -->
  <g transform="translate(600, 250)">
    <rect x="-250" y="-80" width="500" height="160" rx="10" fill="#ffffff"/>
    <text x="0" y="0" font-family="Arial, sans-serif" font-size="70" font-weight="bold" text-anchor="middle" fill="#1e88e5">PAISA BAZAAR</text>
    <text x="0" y="50" font-family="Arial, sans-serif" font-size="24" text-anchor="middle" fill="#333333">Financial Marketplace</text>
  </g>
  
  <!-- Case Study Text -->
  <text x="600" y="400" font-family="Arial, sans-serif" font-size="36" font-weight="bold" text-anchor="middle" fill="#ffffff">CASE STUDY</text>
  
  <!-- Finance Icons -->
  <g transform="translate(300, 500)">
    <rect x="-60" y="-60" width="120" height="120" rx="60" fill="#ffffff"/>
    <text x="0" y="20" font-family="Arial, sans-serif" font-size="60" text-anchor="middle" fill="#1e88e5">💰</text>
  </g>
  
  <g transform="translate(600, 500)">
    <rect x="-60" y="-60" width="120" height="120" rx="60" fill="#ffffff"/>
    <text x="0" y="20" font-family="Arial, sans-serif" font-size="60" text-anchor="middle" fill="#1e88e5">📊</text>
  </g>
  
  <g transform="translate(900, 500)">
    <rect x="-60" y="-60" width="120" height="120" rx="60" fill="#ffffff"/>
    <text x="0" y="20" font-family="Arial, sans-serif" font-size="60" text-anchor="middle" fill="#1e88e5">📱</text>
  </g>
  
  <!-- Results Text -->
  <text x="300" y="580" font-family="Arial, sans-serif" font-size="18" text-anchor="middle" fill="#ffffff">Loans & Credit</text>
  <text x="600" y="580" font-family="Arial, sans-serif" font-size="18" text-anchor="middle" fill="#ffffff">Investments</text>
  <text x="900" y="580" font-family="Arial, sans-serif" font-size="18" text-anchor="middle" fill="#ffffff">Digital Growth</text>
  
  <!-- Patterns -->
  <defs>
    <pattern id="grid" width="20" height="20" patternUnits="userSpaceOnUse">
      <path d="M 20 0 L 0 0 0 20" fill="none" stroke="#ffffff" stroke-width="1"/>
    </pattern>
  </defs>
</svg>